<svg width="512" height="512" viewBox="0 0 512 512" fill="none" xmlns="http://www.w3.org/2000/svg">
<rect width="512" height="512" rx="256" fill="white"/>
<path d="M232.255 0.387621C230.681 0.584393 224.384 1.46987 218.284 2.35534C181.783 7.27464 143.904 22.1309 112.224 43.8743C96.679 54.4999 88.3162 61.4854 73.8534 75.9481C16.0024 133.897 -10.1683 216.935 3.60579 298.694C7.44284 321.618 14.5266 343.952 25.0539 366.285L30.5636 377.993L31.2523 367.761C34.0071 327.128 40.6973 285.707 49.7488 253.83C60.8665 214.476 76.9034 181.32 94.8096 160.462C101.598 152.591 101.795 153.181 91.6613 151.41C82.3146 149.738 72.3776 150.131 64.9003 152.394C59.3907 154.067 57.3246 155.444 52.4053 160.363C46.6989 165.971 46.5021 166.07 47.1908 163.118C48.9618 154.165 55.4552 147.376 67.6551 141.375C72.0825 139.309 76.3131 137.538 77.0018 137.538C80.4453 137.538 76.805 133.602 70.9018 130.946C67.9503 129.667 64.2116 129.273 55.9472 129.273C45.4199 129.175 45.0263 129.077 46.6005 127.404C47.486 126.42 51.323 124.059 55.1601 122.19C67.4583 116.09 82.3146 116.778 96.9741 123.96C100.516 125.731 103.763 127.306 104.255 127.502C105.829 128.289 104.058 118.254 101.992 114.122C100.91 111.957 97.6628 108.12 94.8096 105.562L89.5952 100.84L94.5145 101.528C109.568 103.791 120.882 115.794 123.145 131.93C123.44 134.193 123.834 137.046 124.129 138.128L124.522 140.293L130.622 138.325C139.772 135.472 150.299 136.16 156.694 140.096C160.827 142.654 167.812 151.017 167.812 153.378C167.812 153.87 166.14 153.378 164.172 152.296C159.843 150.033 151.972 149.738 144.298 151.509L139.28 152.689L142.724 155.542C149.414 161.052 153.054 171.776 153.054 185.55L152.956 193.126L149.02 185.55C144.396 176.892 136.722 168.234 130.721 165.283L126.687 163.217L128.654 168.234C131.212 175.023 131.901 184.271 130.425 190.765C128.95 197.356 124.325 206.31 120.587 209.852L117.734 212.606L119.209 207.785C121.374 200.603 121.964 189.879 120.685 182.303C119.406 175.416 115.176 164.791 111.929 160.658L109.961 158.199L106.321 162.233C94.1209 175.81 82.5114 200.997 75.0341 230.513C67.8519 258.356 64.2116 286.396 62.4406 327.62C61.3584 352.216 62.0471 392.358 63.5229 392.358C63.9164 392.358 69.2293 391.079 75.4276 389.406C98.9419 383.306 121.866 380.453 148.627 380.355C164.073 380.355 166.041 380.158 164.369 378.977C152.661 370.614 148.824 357.529 154.53 345.329L156.891 340.213L177.847 340.41L198.705 340.705L200.968 344.64C207.757 356.84 202.444 373.369 189.654 379.764L184.931 382.125L196.246 383.798C210.512 385.864 228.713 390.292 244.258 395.506L256.36 399.441L268.363 395.506C284.301 390.193 301.617 386.061 318.146 383.503C331.723 381.437 362.42 379.469 367.044 380.355C369.208 380.748 368.815 379.961 363.895 375.042C357.5 368.647 355.729 364.416 355.729 355.856C355.729 342.574 367.929 330.374 381.015 330.374C398.823 330.374 411.908 348.084 406.497 364.613C404.529 370.516 398.429 377.796 393.903 379.666C390.853 380.945 391.345 381.043 405.906 383.208C423.222 385.766 444.867 390.882 458.838 395.801L468.381 399.146L470.349 396.785C471.431 395.506 475.367 389.012 479.106 382.519C493.962 356.545 504.784 325.553 509.802 294.463C512.262 279.115 512.754 241.433 510.786 225.003C503.505 167.152 478.515 115.893 437.39 74.4723C399.314 36.2001 350.023 11.1117 295.222 2.15857C285.875 0.682779 239.732 -0.694626 232.255 0.387621ZM355.434 194.208C355.729 195.094 355.533 196.668 354.844 197.75C353.958 199.226 353.958 200.013 354.746 200.997C355.533 201.882 355.631 203.85 355.238 206.408C354.549 210.343 354.549 210.343 350.023 210.343C344.218 210.343 345.301 211.327 351.991 212.213C357.796 212.901 358.976 214.672 356.32 218.706C355.041 220.674 353.86 221.166 350.318 221.166C347.859 221.166 345.891 221.559 345.891 221.953C345.891 222.347 361.239 224.117 380.129 225.888C398.921 227.659 415.942 229.529 417.909 230.119C421.943 231.201 424.6 234.153 424.6 237.596C424.6 240.056 447.327 274.196 451.656 278.23C456.575 282.756 457.067 285.018 458.149 305.089C458.641 315.518 458.74 326.931 458.444 330.571C457.854 336.769 457.953 337.261 459.723 337.261C462.085 337.261 465.43 340.803 466.217 344.05C467.004 347.1 464.741 352.511 462.183 353.889C461.002 354.479 457.953 354.971 455.198 354.971C452.541 354.971 449.983 355.364 449.688 355.955C448.803 357.332 418.5 357.234 415.351 355.856C412.99 354.774 409.743 349.166 406.89 341.098C404.922 335.687 400.79 330.178 397.052 327.915C394.1 326.242 391.935 325.947 380.818 325.947C370.782 325.947 367.339 326.341 364.978 327.62C359.862 330.374 354.942 338.934 352.778 348.674C352.188 351.331 351.204 353.987 350.613 354.676C349.826 355.66 336.544 355.955 284.99 355.955H220.35L217.792 353.2C216.415 351.724 214.349 348.674 213.168 346.411C209.036 338.147 209.429 338.245 179.225 338.245C148.824 338.245 149.807 338.049 145.577 346.411C144.101 349.265 142.428 351.823 141.838 352.216C141.248 352.61 137.804 353.003 134.262 353.003C129.048 353.003 127.474 353.397 125.998 354.971C124.424 356.742 122.948 356.939 113.109 356.939C102.779 356.939 101.893 356.84 100.516 354.774C99.6306 353.594 98.9419 351.823 98.9419 350.937C98.9419 348.576 102.779 344.148 104.747 344.148C106.321 344.148 106.616 341.394 108.092 314.829C111.437 258.061 118.521 235.235 135.738 226.282C140.166 224.019 142.133 223.626 152.857 223.33L164.861 222.937V217.722V212.508L159.449 209.852C153.448 206.998 151.48 204.637 150.496 199.521L149.807 196.176L153.448 198.34C161.909 203.358 168.107 204.539 189.457 205.523C200.575 205.916 216.513 206.408 224.974 206.408H240.421L247.603 200.702C254.884 195.094 254.884 195.094 263.247 194.405C276.037 193.421 314.014 193.519 321.786 194.602C337.922 196.865 340.283 196.865 344.907 194.798C350.417 192.24 354.549 192.044 355.434 194.208Z" fill="#249FFF"/>
<path d="M167.812 218.312V223.428L182.767 222.837C190.933 222.444 206.871 222.149 218.186 222.149H238.65V219.197C238.65 216.836 238.158 216.147 236.092 215.655C234.616 215.262 221.629 215.262 207.265 215.655C182.767 216.344 177.355 216.049 169.583 213.688C168.009 213.196 167.812 213.884 167.812 218.312Z" fill="#249FFF"/>
<path d="M295.222 219.296C277.906 219.592 259.508 219.985 254.392 220.084C249.079 220.084 245.537 220.575 246.029 221.067C246.619 221.559 268.559 222.15 295.025 222.543C333.691 223.035 342.939 222.937 342.939 221.953C342.939 219.788 337.921 218.214 332.215 218.411C329.165 218.509 312.538 218.903 295.222 219.296Z" fill="#249FFF"/>
<path d="M174.896 244.775C153.546 245.267 152.857 245.365 151.086 247.53C149.02 249.989 147.643 255.991 146.659 266.125C145.97 272.815 146.069 273.208 148.233 274.291C151.48 276.062 234.616 275.766 236.387 273.995C237.076 273.307 237.863 267.699 238.256 259.631C238.945 247.53 238.847 246.349 237.174 245.168C235.207 243.693 221.236 243.594 174.896 244.775Z" fill="#249FFF"/>
<path d="M133.574 246.447C130.917 248.71 127.769 258.45 126.884 266.911L126.195 273.602L132 272.814C135.148 272.421 137.903 272.027 138.001 272.027C138.1 271.929 138.69 268.092 139.28 263.468C139.87 258.844 141.248 252.744 142.133 249.891L143.904 244.774H139.772C137.214 244.774 134.754 245.463 133.574 246.447Z" fill="#249FFF"/>
<path d="M249.964 246.45C248.488 247.925 248.39 249.696 248.98 261.896C249.472 270.357 250.161 276.064 250.85 276.457C252.129 277.343 314.997 277.244 328.181 276.359L337.528 275.769L337.823 261.601C338.02 252.058 337.724 247.04 336.937 246.154C336.052 244.974 328.378 244.777 293.647 244.777C255.572 244.777 251.44 244.974 249.964 246.45Z" fill="#249FFF"/>
<path d="M354.155 247.235C352.975 249.104 352.778 251.957 353.073 261.993C353.368 268.88 353.959 274.881 354.549 275.472C356.221 277.144 369.405 278.128 390.361 278.128C409.94 278.227 412.498 277.735 409.35 274.586C408.563 273.799 408.366 272.028 408.956 268.683C409.35 266.125 409.743 263.173 409.743 262.288C409.842 261.403 410.826 260.32 412.006 259.927C417.024 258.353 419.582 267.798 415.843 273.996C414.761 275.669 414.171 277.341 414.466 277.636C414.859 277.931 417.221 278.227 419.779 278.227C423.714 278.227 424.796 277.833 426.075 275.865C427.551 273.701 427.354 272.815 423.025 260.911C420.467 253.925 417.909 247.727 417.319 247.137C416.63 246.349 406.595 245.858 385.934 245.464L355.631 244.972L354.155 247.235Z" fill="#249FFF"/>
<path d="M174.207 344.246C163.089 347.493 161.81 363.923 172.239 368.35C176.863 370.22 180.503 370.121 184.242 367.76C188.473 365.202 190.539 361.759 190.637 357.233C190.736 347.985 182.766 341.688 174.207 344.246Z" fill="#249FFF"/>
<path d="M377.964 344.147C369.995 346.607 366.354 355.363 370.29 362.742C373.733 369.137 381.899 371.498 387.901 367.76C392.328 365.103 394.394 361.463 394.394 356.445C394.394 347.689 386.327 341.687 377.964 344.147Z" fill="#249FFF"/>
</svg>
